<?xml version="1.0" encoding="UTF-8"?>
<svg width="235px" height="235px" viewBox="0 0 235 235" version="1.1" xmlns="http://www.w3.org/2000/svg" xmlns:xlink="http://www.w3.org/1999/xlink">
    <!-- Generator: Sketch 53.2 (72643) - https://sketchapp.com -->
    <title>bucket title icon</title>
    <desc>Created with Sketch.</desc>
    <g id="Page-1" stroke="none" stroke-width="1" fill="none" fill-rule="evenodd">
        <g id="icons" transform="translate(-728.000000, -317.000000)">
            <g id="bucket-title-icon" transform="translate(728.000000, 317.000000)">
                <rect id="Rectangle" fill="#2B324C" x="0" y="0" width="235" height="235" rx="117.5"></rect>
                <g id="bucketpanels" transform="translate(60.000000, 22.000000)">
                    <path d="M1.91093165,23.5599958 L4.09509597,161.106192 L4.09509597,162.300869 L-1.13686838e-13,162.300869 L-1.13686838e-13,166.166128 L46.1292281,192.970644 L50.4759188,192.970644 L55.1272384,190.401321 L55.1272384,186.502026 L52.540862,184.759788 L62.6644721,182.288745 L62.6644721,181.216598 L100.656543,170.103289 L101.522487,170.718071 L105.251434,170.103289 L108.734726,173.60606 L112.209533,172.771742 L115.599909,171.333704 L115.599909,168.836284 L111.105995,164.600454 L113.538785,27.9209095 C111.077145,16.7464759 108.314695,9.65314837 105.251434,6.64092701 C102.188173,3.62870565 86.3710133,1.73543092 57.7999546,0.961102832 L55.1272384,4.81487417 L41.8249649,5.60834774 L32.3611014,10.502782 L30.0466848,10.502782 L30.0466848,-1.13686838e-13 L21.258266,-1.13686838e-13 L21.258266,9.33575894 C20.8185057,12.8309426 20.3718862,14.6781264 19.9184077,14.8773102 C19.4649291,15.0764941 13.4624371,17.9707226 1.91093165,23.5599958 Z" id="outline" fill="#D0D2D4"></path>
                    <path d="M1.91093165,23.5599958 L19.9184077,14.8773102 L21.258266,9.33575894 L30.1209328,9.33575894 L30.1209328,10.634673 L32.4094686,10.634673 L41.8249649,5.60834774 L55.1272384,4.81487417 L57.7999546,0.961102832 C84.4190684,1.94588933 99.9701374,3.49497096 104.453162,5.60834774 C108.936186,7.72172451 111.964727,15.1592451 113.538785,27.9209095 L109.618914,26.4773407 C107.747864,19.7786936 106.025947,15.3576489 104.453162,13.2142067 C102.093984,9.99904328 80.1178459,7.55778252 66.2805624,8.7784129 C63.2585977,13.2689485 59.961986,18.1961428 56.3907274,23.5599958 C33.332831,23.6340249 15.3964917,25.80654 2.58170939,30.0775408 C2.41143395,27.8217784 2.18784137,25.6492634 1.91093165,23.5599958 Z" id="Path" fill="#EFEFEF"></path>
                    <path d="M62.6644721,181.216598 L63.9211728,11.4728194 L66.2805624,8.7784129 C91.7245777,9.38227535 104.446585,10.8003169 104.446585,13.0325374 C104.455354,15.109325 104.455354,26.8862029 104.446585,48.363171 L101.324775,169.796961 L62.6644721,181.216598 Z" id="door" fill="#A7B4C0"></path>
                    <polygon id="pipe" fill="#A1A1A1" points="21.258266 -1.13686838e-13 21.258266 9.33575894 30.1209328 9.33575894 30.1209328 -1.13686838e-13"></polygon>
                    <path d="M1.91093165,30.0775408 L3.76755618,163.097321 L43.5861277,184.152663 L49.1305448,184.879766 L50.606171,24.2645492 C32.0235204,23.9168107 16.4106488,25.8544746 3.76755618,30.0775408 C2.88647979,30.2082973 2.26760495,30.2082973 1.91093165,30.0775408 Z" id="side-panel" fill="#00C5FF"></path>
                </g>
            </g>
        </g>
    </g>
</svg>