<?xml version="1.0" encoding="UTF-8"?>
<svg width="192px" height="192px" viewBox="0 0 192 192" version="1.1" xmlns="http://www.w3.org/2000/svg" xmlns:xlink="http://www.w3.org/1999/xlink">
    <!-- Generator: Sketch 53.2 (72643) - https://sketchapp.com -->
    <title>bucket app icon</title>
    <desc>Created with Sketch.</desc>
    <g id="Page-1" stroke="none" stroke-width="1" fill="none" fill-rule="evenodd">
        <g id="icons" transform="translate(-475.000000, -99.000000)">
            <g id="bucket-app-icon" transform="translate(475.000000, 99.000000)">
                <rect id="Rectangle" fill="#2B324C" x="0" y="0" width="192" height="192"></rect>
                <g id="bucketpanels" transform="translate(53.000000, 25.000000)">
                    <path d="M1.4050979,17.2148434 L3.01110234,117.717248 L3.01110234,118.590176 L0,118.590176 L0,121.414447 L33.9185767,141 L37.1146753,141 L40.5347659,139.122644 L40.5347659,136.273503 L38.6330171,135.000483 L46.0768539,133.194939 L46.0768539,132.411542 L74.0122218,124.291256 L74.6489457,124.740466 L77.3908208,124.291256 L79.9520672,126.850665 L82.5070743,126.241045 L85,125.190298 L85,123.36548 L81.695649,120.270439 L83.4844659,20.4012805 C81.6744352,12.2363332 79.6432202,7.05337296 77.3908208,4.85239978 C75.1384214,2.65142659 63.5081478,1.26804656 42.5,0.702259664 L40.5347659,3.5181375 L30.7536748,4.09791363 L23.7949461,7.67418418 L22.0931679,7.67418418 L22.0931679,0 L15.6310902,0 L15.6310902,6.82146251 C15.3077368,9.37532713 14.9793399,10.7250294 14.6458995,10.8705692 C14.3124591,11.0161091 9.89885857,13.1308672 1.4050979,17.2148434 Z" id="outline" fill="#D0D2D4"></path>
                    <path d="M1,17.2992723 L14.2279982,11.0369542 L15.2122363,7.0401543 L21.7226067,7.0401543 L21.7226067,7.9769858 L23.4037278,7.9769858 L30.3201978,4.35178853 L40.091831,3.77950202 L42.0551647,1 C61.6091315,1.71026945 73.0326932,2.82753229 76.3258496,4.35178853 C79.619006,5.87604477 81.8437228,11.2402975 83,20.4445467 L80.1205269,19.4033842 C78.7460842,14.5720381 77.4811918,11.3833947 76.3258496,9.83745397 C74.5928363,7.51854287 58.4495236,5.75780291 48.2848808,6.63817289 C46.0649948,9.87693612 43.6433577,13.4306359 41.0199694,17.2992723 C24.0820148,17.3526653 10.9062724,18.9195745 1.49274239,22 C1.36766083,20.3730493 1.20341337,18.80614 1,17.2992723 Z" id="Path" fill="#EFEFEF"></path>
                    <path d="M46,132 L46.9322551,7.96879372 L48.6825153,6 C67.5575861,6.44124026 76.9951216,7.47739839 76.9951216,9.1084744 C77.0016261,10.6259761 77.0016261,19.231301 76.9951216,34.9244491 L74.6792765,123.655709 L46,132 Z" id="door" fill="#A7B4C0"></path>
                    <polygon id="pipe" fill="#A1A1A1" points="16 0 16 7 22 7 22 0"></polygon>
                    <path d="M1,22.2623221 L2.37258763,119.136518 L31.8101383,134.470474 L35.9090814,135 L37,18.0288999 C23.2619954,17.7756526 11.7195246,19.1867934 2.37258763,22.2623221 C1.72121492,22.357548 1.26368571,22.357548 1,22.2623221 Z" id="side-panel" fill="#00C5FF"></path>
                </g>
            </g>
        </g>
    </g>
</svg>