<?xml version="1.0" encoding="UTF-8"?>
<svg width="268px" height="444px" viewBox="0 0 268 444" version="1.1" xmlns="http://www.w3.org/2000/svg" xmlns:xlink="http://www.w3.org/1999/xlink">
    <!-- Generator: Sketch 53.2 (72643) - https://sketchapp.com -->
    <title>bucketpanels</title>
    <desc>Created with Sketch.</desc>
    <g id="Page-1" stroke="none" stroke-width="1" fill="none" fill-rule="evenodd">
        <g id="icons" transform="translate(-394.000000, -86.000000)">
            <g id="bucketpanels" transform="translate(394.957031, 86.339844)">
                <path d="M4.3984375,54.078125 L9.42578125,369.792969 L9.42578125,372.535156 L-1.13686838e-13,372.535156 L-1.13686838e-13,381.407227 L106.176758,442.932617 L116.181641,442.932617 L126.887695,437.035156 L126.887695,428.084961 L120.93457,424.085938 L144.236328,418.414063 L144.236328,415.953125 L231.683594,390.444336 L233.676758,391.855469 L242.259766,390.444336 L250.277344,398.484375 L258.275391,396.569336 L266.079102,393.268555 L266.079102,387.536133 L255.735352,377.813477 L261.334961,64.0878906 C255.668945,38.4388021 249.310547,22.1572266 242.259766,15.2431641 C235.208984,8.32910156 198.802246,3.98339844 133.039551,2.20605469 L126.887695,11.0517578 L96.2695312,12.8730469 L74.4863281,24.1074219 L69.1591797,24.1074219 L69.1591797,-1.13686838e-13 L48.9306641,-1.13686838e-13 L48.9306641,21.4287109 C47.918457,29.4513346 46.8904622,33.6912435 45.8466797,34.1484375 C44.8028971,34.6056315 30.9868164,41.2488607 4.3984375,54.078125 Z" id="outline" fill="#D0D2D4"></path>
                <path d="M4.3984375,54.078125 L45.8466797,34.1484375 L48.9306641,21.4287109 L69.3300781,21.4287109 L69.3300781,24.4101562 L74.5976562,24.4101562 L96.2695312,12.8730469 L126.887695,11.0517578 L133.039551,2.20605469 C194.309408,4.46647135 230.103678,8.02213542 240.422363,12.8730469 C250.741048,17.7239583 257.711914,34.7955729 261.334961,64.0878906 L252.3125,60.7744141 C248.005859,45.398763 244.04248,35.2509766 240.422363,30.3310547 C234.992188,22.9511719 184.40918,17.3476562 152.55957,20.1494141 C145.603841,30.4567057 138.015951,41.766276 129.795898,54.078125 C76.7229818,54.2480469 35.4384766,59.2347005 5.94238281,69.0380859 C5.55045573,63.8603516 5.03580729,58.8736979 4.3984375,54.078125 Z" id="Path" fill="#EFEFEF"></path>
                <path d="M144.236328,415.953125 L147.128906,26.3339844 L152.55957,20.1494141 C211.124674,21.5354818 240.407227,24.7903646 240.407227,29.9140625 C240.427409,34.6809896 240.427409,61.7128906 240.407227,111.009766 L233.22168,389.741211 L144.236328,415.953125 Z" id="door" fill="#A7B4C0"></path>
                <polygon id="pipe" fill="#A1A1A1" points="48.9306641 -1.13686838e-13 48.9306641 21.4287109 69.3300781 21.4287109 69.3300781 -1.13686838e-13"></polygon>
                <path d="M4.3984375,69.0380859 L8.671875,374.363281 L100.323242,422.692383 L113.084961,424.361328 L116.481445,55.6953125 C73.7093099,54.8971354 37.7727865,59.3447266 8.671875,69.0380859 C6.64388021,69.3382161 5.21940104,69.3382161 4.3984375,69.0380859 Z" id="side-panel" fill="#F56565"></path>
            </g>
        </g>
    </g>
</svg>